<svg width="16" height="16" viewBox="0 0 16 16" fill="none" xmlns="http://www.w3.org/2000/svg">
<mask id="mask0_263_1027" style="mask-type:alpha" maskUnits="userSpaceOnUse" x="0" y="0" width="16" height="16">
<rect width="16" height="16" fill="#D9D9D9"/>
</mask>
<g mask="url(#mask0_263_1027)">
<path d="M3.5999 12.3999H9.1999V9.1999H12.3999V3.5999H3.5999V12.3999ZM3.5999 13.5999C3.2699 13.5999 2.9874 13.4824 2.7524 13.2474C2.5174 13.0124 2.3999 12.7299 2.3999 12.3999V3.5999C2.3999 3.2699 2.5174 2.9874 2.7524 2.7524C2.9874 2.5174 3.2699 2.3999 3.5999 2.3999H12.3999C12.7299 2.3999 13.0124 2.5174 13.2474 2.7524C13.4824 2.9874 13.5999 3.2699 13.5999 3.5999V9.5999L9.5999 13.5999H3.5999ZM4.7999 9.1999V7.9999H7.9999V9.1999H4.7999ZM4.7999 6.7999V5.5999H11.1999V6.7999H4.7999Z" fill="white"/>
</g>
</svg>
