<svg width="16" height="16" viewBox="0 0 16 16" fill="none" xmlns="http://www.w3.org/2000/svg">
<mask id="mask0_263_1016" style="mask-type:alpha" maskUnits="userSpaceOnUse" x="0" y="0" width="16" height="16">
<rect width="16" height="16" fill="#D9D9D9"/>
</mask>
<g mask="url(#mask0_263_1016)">
<path d="M9.20383 12.4C8.75683 12.4 8.37778 12.2457 8.06667 11.9372C7.75556 11.6285 7.6 11.2507 7.6 10.8038C7.6 10.3568 7.75428 9.97778 8.06283 9.66667C8.3715 9.35556 8.74928 9.2 9.19617 9.2C9.64317 9.2 10.0222 9.35428 10.3333 9.66283C10.6444 9.9715 10.8 10.3493 10.8 10.7962C10.8 11.2432 10.6457 11.6222 10.3372 11.9333C10.0285 12.2444 9.65072 12.4 9.20383 12.4ZM3.2 14.8C2.87 14.8 2.5875 14.6806 2.3525 14.4417C2.1175 14.2028 2 13.9222 2 13.6V4.8C2 4.47778 2.1175 4.19722 2.3525 3.95833C2.5875 3.71944 2.87 3.6 3.2 3.6H4.4V2H5.6V3.6H9.6V2H10.8V3.6H12C12.33 3.6 12.6125 3.71944 12.8475 3.95833C13.0825 4.19722 13.2 4.47778 13.2 4.8V13.6C13.2 13.9222 13.0825 14.2028 12.8475 14.4417C12.6125 14.6806 12.33 14.8 12 14.8H3.2ZM3.2 13.6H12V7.6H3.2V13.6ZM3.2 6.4H12V4.8H3.2V6.4Z" fill="white"/>
</g>
</svg>
