<svg width="40" height="40" viewBox="0 0 40 40" fill="none" xmlns="http://www.w3.org/2000/svg">
<mask id="mask0_543_1326" style="mask-type:alpha" maskUnits="userSpaceOnUse" x="0" y="0" width="40" height="40">
<rect width="40" height="40" fill="#D9D9D9"/>
</mask>
<g mask="url(#mask0_543_1326)">
<path d="M20.003 35.8332C17.813 35.8332 15.7545 35.4176 13.8276 34.5865C11.9006 33.7554 10.2245 32.6275 8.79925 31.2028C7.37397 29.778 6.2455 28.1026 5.41383 26.1765C4.58244 24.2504 4.16675 22.1925 4.16675 20.0028C4.16675 17.8128 4.5823 15.7543 5.41341 13.8273C6.24453 11.9004 7.37244 10.2243 8.79716 8.799C10.2219 7.37373 11.8973 6.24525 13.8234 5.41359C15.7495 4.5822 17.8074 4.1665 19.9972 4.1665C22.1872 4.1665 24.2456 4.58206 26.1726 5.41317C28.0995 6.24428 29.7756 7.3722 31.2009 8.79692C32.6262 10.2216 33.7547 11.8971 34.5863 13.8232C35.4177 15.7493 35.8334 17.8072 35.8334 19.9969C35.8334 22.1869 35.4179 24.2454 34.5868 26.1723C33.7556 28.0993 32.6277 29.7754 31.203 31.2007C29.7783 32.6259 28.1029 33.7544 26.1767 34.5861C24.2506 35.4175 22.1927 35.8332 20.003 35.8332ZM18.2713 33.6728V30.344C17.3236 30.344 16.5208 30.0015 15.863 29.3165C15.2052 28.6318 14.8763 27.8161 14.8763 26.8694V25.1236L6.61133 16.859C6.50522 17.3818 6.42022 17.9037 6.35633 18.4248C6.29272 18.9459 6.26091 19.4718 6.26091 20.0023C6.26091 23.4857 7.39883 26.5308 9.67466 29.1378C11.9508 31.7444 14.8163 33.2561 18.2713 33.6728ZM30.1434 29.299C31.3165 28.0148 32.2091 26.5741 32.8213 24.9769C33.4333 23.3797 33.7392 21.7187 33.7392 19.994C33.7392 17.1598 32.9615 14.5765 31.4059 12.244C29.8504 9.91178 27.762 8.21928 25.1409 7.1665V7.914C25.1409 8.85789 24.812 9.67234 24.1542 10.3573C23.4965 11.0421 22.6937 11.3844 21.7459 11.3844H18.2713V14.859C18.2713 15.334 18.0984 15.7276 17.7526 16.0398C17.407 16.3523 16.9994 16.5086 16.5297 16.5086H13.1305V19.9998H23.4913C23.9666 19.9998 24.3604 20.1698 24.6726 20.5098C24.9848 20.8501 25.1409 21.2564 25.1409 21.7286V26.8694H26.8651C27.6317 26.8694 28.3145 27.0947 28.9134 27.5453C29.5123 27.9955 29.9223 28.5801 30.1434 29.299Z" fill="#1C1B1F"/>
</g>
</svg>
