<svg width="16" height="16" viewBox="0 0 16 16" fill="none" xmlns="http://www.w3.org/2000/svg">
<mask id="mask0_263_1011" style="mask-type:alpha" maskUnits="userSpaceOnUse" x="0" y="0" width="16" height="16">
<rect width="16" height="16" fill="#D9D9D9"/>
</mask>
<g mask="url(#mask0_263_1011)">
<path d="M8.00355 8.0001C8.33455 8.0001 8.61671 7.88226 8.85005 7.6466C9.08338 7.41093 9.20005 7.1276 9.20005 6.7966C9.20005 6.4656 9.08221 6.18343 8.84655 5.9501C8.61088 5.71676 8.32755 5.6001 7.99655 5.6001C7.66555 5.6001 7.38338 5.71793 7.15005 5.9536C6.91672 6.18926 6.80005 6.4726 6.80005 6.8036C6.80005 7.1346 6.91788 7.41676 7.15355 7.6501C7.38921 7.88343 7.67255 8.0001 8.00355 8.0001ZM8.00005 12.8168C9.32227 11.6279 10.3195 10.5334 10.9917 9.53343C11.6639 8.53343 12 7.63899 12 6.8501C12 5.68343 11.6195 4.71676 10.8584 3.9501C10.0973 3.18343 9.14449 2.8001 8.00005 2.8001C6.8556 2.8001 5.90283 3.18343 5.14172 3.9501C4.3806 4.71676 4.00005 5.68343 4.00005 6.8501C4.00005 7.63899 4.33616 8.53343 5.00838 9.53343C5.6806 10.5334 6.67783 11.6279 8.00005 12.8168ZM8.00005 14.4001C6.25594 12.9433 4.95322 11.5903 4.09188 10.3409C3.23066 9.09149 2.80005 7.92788 2.80005 6.8501C2.80005 5.36121 3.29449 4.11399 4.28338 3.10843C5.27227 2.10288 6.50838 1.6001 7.99172 1.6001C9.47505 1.6001 10.7139 2.10288 11.7084 3.10843C12.7028 4.11399 13.2 5.36121 13.2 6.8501C13.2 7.92788 12.7723 9.08899 11.9167 10.3334C11.0612 11.5779 9.7556 12.9334 8.00005 14.4001Z" fill="white"/>
</g>
</svg>
