<svg width="176" height="30" viewBox="0 0 176 30" fill="none" xmlns="http://www.w3.org/2000/svg">
<path d="M7.808 25.5V7.452H1.088V4.7H17.472V7.452H10.752V25.5H7.808ZM27.8425 25.884C22.6585 25.884 19.9385 22.204 19.9385 15.1C19.9385 7.996 22.6585 4.316 27.8425 4.316C33.0265 4.316 35.7465 7.996 35.7465 15.1C35.7465 22.204 33.0265 25.884 27.8425 25.884ZM27.8425 23.1C31.1065 23.1 32.7385 20.444 32.7385 15.1C32.7385 9.756 31.1065 7.1 27.8425 7.1C24.5785 7.1 22.9465 9.756 22.9465 15.1C22.9465 20.444 24.5785 23.1 27.8425 23.1ZM39.877 25.5V4.7H47.557C51.877 4.7 54.117 6.78 54.117 10.78C54.117 14.748 51.877 16.86 47.557 16.86H42.821V25.5H39.877ZM42.821 14.108H47.237C49.989 14.108 51.109 13.148 51.109 10.78C51.109 8.412 49.989 7.452 47.237 7.452H42.821V14.108ZM57.6395 25.5V22.812H63.5595V9.948L59.2075 13.308L57.8635 11.484L64.4875 5.148H66.5035V22.812H72.4235V25.5H57.6395ZM83.53 25.884C78.538 25.884 75.818 22.204 75.818 15.42C75.818 8.636 78.538 4.956 83.53 4.956C88.522 4.956 91.242 8.636 91.242 15.42C91.242 22.204 88.522 25.884 83.53 25.884ZM79.05 18.332L87.21 9.916C86.442 8.444 85.194 7.708 83.53 7.708C80.394 7.708 78.794 10.332 78.794 15.42C78.794 16.508 78.89 17.5 79.05 18.332ZM83.53 23.132C86.666 23.132 88.266 20.508 88.266 15.42C88.266 14.332 88.17 13.34 88.01 12.508L79.85 20.924C80.618 22.396 81.866 23.132 83.53 23.132ZM102.093 25.884C97.1005 25.884 94.3805 22.204 94.3805 15.42C94.3805 8.636 97.1005 4.956 102.093 4.956C107.085 4.956 109.805 8.636 109.805 15.42C109.805 22.204 107.085 25.884 102.093 25.884ZM97.6125 18.332L105.773 9.916C105.005 8.444 103.757 7.708 102.093 7.708C98.9565 7.708 97.3565 10.332 97.3565 15.42C97.3565 16.508 97.4525 17.5 97.6125 18.332ZM102.093 23.132C105.229 23.132 106.829 20.508 106.829 15.42C106.829 14.332 106.733 13.34 106.573 12.508L98.4125 20.924C99.1805 22.396 100.429 23.132 102.093 23.132Z" fill="#1C1B1F"/>
<rect x="116" width="60" height="30" rx="15" fill="#1C1B1F"/>
<path d="M130.836 21V9.3H138.252V10.848H132.492V14.268H137.388V15.816H132.492V19.452H138.252V21H130.836ZM145.417 21.216C143.761 21.216 142.375 20.73 141.259 19.722L142.141 18.39C143.041 19.254 144.157 19.65 145.471 19.65C147.091 19.65 147.955 18.966 147.955 17.706C147.955 16.734 147.505 16.284 146.389 16.014L144.499 15.582C142.609 15.132 141.727 14.16 141.727 12.468C141.727 10.362 143.239 9.084 145.741 9.084C147.163 9.084 148.387 9.498 149.431 10.29L148.621 11.64C147.793 10.974 146.821 10.65 145.723 10.65C144.229 10.65 143.401 11.28 143.401 12.396C143.401 13.278 143.851 13.728 144.985 13.98L146.875 14.43C148.747 14.88 149.629 15.834 149.629 17.634C149.629 19.884 148.099 21.216 145.417 21.216ZM157.083 21.216C154.275 21.216 152.619 18.948 152.619 15.15C152.619 11.226 154.311 9.084 157.425 9.084C158.721 9.084 159.729 9.444 160.701 10.29L159.837 11.604C159.081 10.938 158.343 10.65 157.443 10.65C155.373 10.65 154.311 12.162 154.311 15.15C154.311 18.12 155.337 19.65 157.371 19.65C158.145 19.65 158.757 19.416 159.351 18.894V15.942H157.137V14.412H161.007V21H159.927L159.765 20.136C158.973 20.892 158.127 21.216 157.083 21.216Z" fill="white"/>
</svg>
