<svg width="40" height="40" viewBox="0 0 40 40" fill="none" xmlns="http://www.w3.org/2000/svg">
<mask id="mask0_564_1601" style="mask-type:alpha" maskUnits="userSpaceOnUse" x="0" y="0" width="40" height="40">
<rect width="40" height="40" fill="#D9D9D9"/>
</mask>
<g mask="url(#mask0_564_1601)">
<path d="M4.16675 35.8332V26.8244H6.26091V33.739H13.1755V35.8332H4.16675ZM4.16675 13.1753V4.1665H13.1755V6.26067H6.26091V13.1753H4.16675ZM26.8247 35.8332V33.739H33.7392V26.8244H35.8334V35.8332H26.8247ZM33.7392 13.1753V6.26067H26.8247V4.1665H35.8334V13.1753H33.7392ZM19.998 19.9036C18.7111 19.9036 17.6258 19.4618 16.7422 18.5782C15.8586 17.6948 15.4167 16.6096 15.4167 15.3223C15.4167 14.0604 15.8586 12.9807 16.7422 12.0832C17.6258 11.1857 18.7111 10.7369 19.998 10.7369C21.2599 10.7369 22.3397 11.1857 23.2372 12.0832C24.1347 12.9807 24.5834 14.0604 24.5834 15.3223C24.5834 16.6096 24.1347 17.6948 23.2372 18.5782C22.3397 19.4618 21.2599 19.9036 19.998 19.9036ZM10.4167 29.2628V26.5128C10.4167 25.915 10.5938 25.3761 10.948 24.8961C11.3019 24.4161 11.7487 24.0262 12.2884 23.7265C13.4709 23.069 14.7098 22.5773 16.0051 22.2515C17.3004 21.9257 18.6311 21.7628 19.9972 21.7628C21.363 21.7628 22.6947 21.9257 23.9922 22.2515C25.2894 22.5773 26.5292 23.069 27.7118 23.7265C28.2515 24.0262 28.6983 24.4161 29.0522 24.8961C29.4063 25.3761 29.5834 25.915 29.5834 26.5128V29.2628H10.4167Z" fill="#1C1B1F"/>
</g>
</svg>
